<?xml version="1.0" encoding="utf-8"?>
<!-- Generator: Adobe Illustrator 19.2.1, SVG Export Plug-In . SVG Version: 6.00 Build 0)  -->
<svg version="1.1" id="Layer_1" xmlns="http://www.w3.org/2000/svg" xmlns:xlink="http://www.w3.org/1999/xlink" x="0px" y="0px"
	 viewBox="0 0 371.4 68.7" style="enable-background:new 0 0 371.4 68.7;" xml:space="preserve">
<style type="text/css">
	.st0{fill:#99A3A8;}
	.st1{fill:#333333;}
</style>
<g>
	<path class="st0" d="M0,12.4h10.9v34h18.8v9.2H0V12.4z"/>
	<path class="st0" d="M32.4,34c0-13.5,10.1-22.5,23.2-22.5c13,0,23.1,9,23.1,22.5c0,13.5-10.1,22.5-23.1,22.5
		C42.5,56.5,32.4,47.4,32.4,34z M67.5,34c0-7.5-5.2-12.2-11.9-12.2c-6.7,0-12,4.7-12,12.2c0,7.7,5.3,12.2,12,12.2
		C62.1,46.2,67.5,41.6,67.5,34z"/>
	<path class="st0" d="M85.3,12.4h10.8L112,38.1V12.4h10.9v43.1h-10.7L96.3,29.8v25.7H85.3V12.4z"/>
	<path class="st0" d="M130.6,34c0-13.9,9.3-22.5,23.5-22.5c6.2,0,10.9,1.1,15,3.8v10.4c-3.7-3-8.3-4.1-14-4.1
		c-7.6,0-13.3,4.8-13.3,12.5c0,7.8,4.9,12.7,12.7,12.7c2.3,0,4-0.4,5.5-1.1v-6.9h-6.6V31h17v21.5c-4.3,2.6-9.5,4-16.3,4
		C139.9,56.5,130.6,47.9,130.6,34z"/>
	<path class="st0" d="M178.1,12.4H189v16.7h16.9V12.4h10.9v43.1h-10.9V38.1H189v17.4h-10.9V12.4z"/>
	<path class="st0" d="M291.4,12.4h19.4c9.9,0,16.2,5.1,16.2,14.8c0,6.5-3,11-8,13.3l7.7,15.1h-11.2L308.5,42h-6.2v13.5h-10.9V12.4z
		 M308.8,32.8c4,0,6.9-1.3,6.9-5.6c0-4.6-2.9-5.6-6.9-5.6h-6.5v11.2H308.8z"/>
	<path class="st0" d="M333.9,12.4h10.8l15.9,25.7V12.4h10.9v43.1h-10.7l-15.9-25.7v25.7h-10.9V12.4z"/>
	<g>
		<path class="st1" d="M293.9,25.2c-1.1-0.8-5.6-3.9-9.4-5.5c4.5-3.9,3.3-11.3,3.2-17.1c-0.1-3.5-0.6-3.5-1.3-0.1
			c-2.9,14-9.9,12.4-16.9,10.9c-4.4-3.7-10.1-5.9-15.5-5.9s-11.2,2.2-15.5,5.9c-7,1.5-14,3.2-16.9-10.9c-0.7-3.4-1.2-3.5-1.3,0.1
			c-0.2,5.9-0.4,12.6,4.7,16.6c-4,1.3-9.6,5.1-10.9,6l-2.3,1.6l2.3,1.6c1.5,1.1,9.3,6.4,13.1,6.4c1.9,0,3.6-0.7,5-1.7
			c0.8,2.8,2.2,5.7,3.9,8.4c4.4,8.8,4.4,13.7,4.4,18.5c0,4,3.6,8.6,13.9,8.6c6.2,0,13.5-2.3,13.5-8.6l0-1.2c0-4.8-0.1-9.4,3.9-17.2
			c1.8-2.8,3.2-5.7,4-8.5c1.4,1.1,3.2,1.8,5.1,1.8c3.8,0,11.6-5.4,13.1-6.4l2.3-1.6L293.9,25.2z M265.5,15.5
			c-0.6,4.1-2.5,7.4-4.4,10.7c-3.7,6.4-7.5,13.1-1.6,24.6c-1.7-0.7-3.5-1.1-5.2-1.1c-1.9,0-3.7,0.4-5.3,1c5.8-11.5,2-18.2-1.7-24.6
			c-1.9-3.4-3.9-6.9-4.5-11.1c3.3-2.2,7.3-3.5,11-3.5C257.8,11.6,262.1,13,265.5,15.5z M263.9,58.9l0,1.2c0,3.6-6,4.6-9.5,4.6
			c-3.4,0-9.9-1-9.9-4.6c0-0.8,0-1.6,0-2.4c1.7-3,6.2-5.3,9.9-5.3c3.6,0,7.8,2.3,9.5,5.2C263.8,58,263.8,58.4,263.9,58.9z
			 M227.1,22.8c1.8,0,3.3,1.1,3.8,2.7c-3.6-2.8-8.3-0.3-11.6,1.7c-0.2-0.1-0.4-0.2-0.6-0.4C222.1,24.7,225.7,22.8,227.1,22.8z
			 M227.1,30.9c-1.1,0-3.6-1.2-6.4-2.9c3.3-2,7.3-3.8,10.1-0.7c0.1,0.1,0.2,0.2,0.3,0.3C230.6,29.6,229,30.9,227.1,30.9z
			 M239.5,39.7l-0.1-0.2c-2.6-3.9-4.2-8.5-4.2-11.7c0-4.7,2.6-8.8,6.4-11.7c0.7,4.2,2.6,7.6,4.5,10.9c3.8,6.7,7.4,13,0.7,25
			c-1,0.6-1.9,1.3-2.6,2C243.7,50.2,242.6,45.8,239.5,39.7z M268.3,39.5l-0.1,0.2c-3,5.9-3.9,10.2-4.2,14c-0.7-0.6-1.5-1.2-2.3-1.7
			l0,0c-6.8-12-3.2-18.3,0.7-25c1.8-3.2,3.7-6.5,4.5-10.4c3.4,2.9,5.8,6.8,5.8,11.3C272.6,31,271,35.5,268.3,39.5z M276.8,27.3
			c0.1-0.1,0.2-0.2,0.3-0.3c1-0.9,2.2-1.3,3.4-1.2c2.3,0,4.4,1.1,6.5,2.4c-2.6,1.5-5.1,2.7-6.1,2.7C278.8,30.9,277,29.3,276.8,27.3z
			 M288.4,27.4L288.4,27.4c-2.4-1.5-4.9-3.1-7.8-3.1c0,0,0,0,0,0c-1.2,0-2.3,0.2-3.4,0.8c0.6-1.4,2-2.3,3.7-2.3c1.3,0,5,1.9,8.3,4.1
			C288.9,27.1,288.6,27.2,288.4,27.4z"/>
		<circle class="st1" cx="244" cy="32.8" r="1.8"/>
		<circle class="st1" cx="264.6" cy="32.8" r="1.8"/>
		<rect x="249.8" y="58.6" class="st1" width="2" height="2"/>
		<rect x="255.8" y="58.6" class="st1" width="2" height="2"/>
	</g>
</g>
</svg>
